<svg width="129" height="127" viewBox="0 0 129 127" fill="none" xmlns="http://www.w3.org/2000/svg">
<path d="M104.216 96.5042L67.9776 116.295C65.4944 117.565 63.0111 117.565 60.5279 116.295L24.7841 96.5042L89.569 32.2369L91.3105 31.7501C92.7994 31.7501 93.6432 32.3851 93.7884 33.708L104.216 96.5042ZM51.3474 33.2159L28.7562 70.1041L38.1894 11.7052C38.3399 10.3823 39.1837 9.74731 40.6726 9.74731C41.667 9.74731 42.312 10.0436 42.6614 10.975L53.3307 30.279L51.342 33.2106M73.6912 39.3701L26.2837 86.2384L62.2747 26.125C62.7692 25.1461 63.511 24.7069 64.5054 24.7069C65.4997 24.7069 66.1447 25.1461 66.4941 26.125L73.6912 39.3701Z" fill="#FBC02D"/>
</svg>
