<svg width="129" height="127" viewBox="0 0 129 127" fill="none" xmlns="http://www.w3.org/2000/svg">
<path d="M64.5 79.387V87.3245H80.625C82.7633 87.3245 84.814 86.4882 86.326 84.9996C87.8381 83.5111 88.6875 81.4921 88.6875 79.387V71.4495C88.6875 69.3443 87.8381 67.3254 86.326 65.8368C84.814 64.3482 82.7633 63.512 80.625 63.512H72.5625V55.5745H88.6875V47.637H72.5625C70.4242 47.637 68.3735 48.4732 66.8615 49.9618C65.3494 51.4504 64.5 53.4693 64.5 55.5745V63.512C64.5 65.6171 65.3494 67.6361 66.8615 69.1246C68.3735 70.6132 70.4242 71.4495 72.5625 71.4495H80.625V79.387H64.5Z" fill="#8BC34A"/>
<path d="M64.5 11.9182L16.125 39.6995V95.262L32.25 103.199H56.4375V49.6213C56.4375 49.095 56.2251 48.5903 55.8471 48.2182C55.4691 47.846 54.9565 47.637 54.4219 47.637H50.3906C49.856 47.637 49.3434 47.846 48.9654 48.2182C48.5874 48.5903 48.375 49.095 48.375 49.6213V95.262H32.25L24.1875 91.1583V44.2516L64.5 21.1019L104.812 44.2516V90.6979L64.5 113.848L57.4655 109.792L52.4062 116.098L64.5 123.043L112.875 95.262V39.6995L64.5 11.9182Z" fill="#8BC34A"/>
</svg>
