<svg width="129" height="127" viewBox="0 0 129 127" fill="none" xmlns="http://www.w3.org/2000/svg">
<path d="M64.5 47.625C94.5086 47.625 112.875 57.9041 112.875 63.5C112.875 69.0959 94.5086 79.375 64.5 79.375C34.4914 79.375 16.125 69.0959 16.125 63.5C16.125 57.9041 34.4914 47.625 64.5 47.625ZM64.5 39.6875C33.3304 39.6875 8.0625 50.3476 8.0625 63.5C8.0625 76.6524 33.3304 87.3125 64.5 87.3125C95.6696 87.3125 120.938 76.6524 120.938 63.5C120.938 50.3476 95.6696 39.6875 64.5 39.6875Z" fill="#00BCD4"/>
<path d="M64.5 55.5625C62.9054 55.5625 61.3466 56.028 60.0207 56.9002C58.6948 57.7724 57.6615 59.0121 57.0512 60.4625C56.441 61.9128 56.2813 63.5088 56.5924 65.0485C56.9035 66.5883 57.6714 68.0026 58.799 69.1127C59.9265 70.2227 61.3631 70.9787 62.9271 71.285C64.4911 71.5913 66.1122 71.4341 67.5854 70.8333C69.0586 70.2325 70.3178 69.2152 71.2037 67.9098C72.0896 66.6045 72.5625 65.0699 72.5625 63.5C72.5625 61.3948 71.7131 59.3759 70.201 57.8873C68.689 56.3988 66.6383 55.5625 64.5 55.5625Z" fill="#00BCD4"/>
<path d="M42.1588 21.856C50.2898 21.856 66.0923 34.4647 78.4643 55.5625C93.4686 81.1491 93.6097 101.945 88.6875 104.743C88.1197 105.033 87.4841 105.17 86.8452 105.14C78.7142 105.14 62.9077 92.5354 50.5358 71.4375C35.5314 45.851 35.3903 25.0548 40.3125 22.2568C40.8817 21.9668 41.5186 21.8259 42.1588 21.856ZM42.1548 13.9224C40.1003 13.886 38.073 14.3887 36.2812 15.379C24.7116 21.9552 27.9688 48.8315 43.5536 75.4063C56.7922 97.9885 74.6749 113.082 86.8493 113.082C88.9031 113.115 90.929 112.61 92.7188 111.617C104.288 105.045 101.031 78.1685 85.4464 51.5938C72.2077 29.0116 54.3251 13.9185 42.1508 13.9185L42.1548 13.9224Z" fill="#00BCD4"/>
<path d="M86.8452 21.8559C87.4841 21.826 88.1197 21.9629 88.6875 22.2527C93.6097 25.0547 93.4686 45.8509 78.4643 71.4375C66.0883 92.5353 50.2858 105.144 42.1548 105.144C41.5159 105.174 40.8803 105.037 40.3125 104.747C35.3903 101.941 35.5314 81.145 50.5358 55.5625C62.9117 34.4646 78.7142 21.8559 86.8452 21.8559ZM86.8452 13.9184C74.6708 13.9184 56.7923 29.0155 43.5496 51.5937C27.9728 78.1685 24.7116 105.045 36.2813 111.617C38.0722 112.61 40.0996 113.116 42.1548 113.082C54.3292 113.082 72.2078 97.9844 85.4504 75.4062C101.027 48.8315 104.288 21.9551 92.7188 15.3828C90.9278 14.3897 88.9004 13.8842 86.8452 13.9184Z" fill="#00BCD4"/>
</svg>
