<svg width="129" height="127" viewBox="0 0 129 127" fill="none" xmlns="http://www.w3.org/2000/svg">
<path d="M75.6542 10.2989C70.0483 10.4056 64.4703 11.938 59.5417 15.0292L34.3622 30.8263C30.9638 32.9278 28.0479 35.7037 25.8004 38.9769C23.553 42.2501 22.0235 45.9487 21.3095 49.8365C20.1052 56.3985 21.1582 63.1684 24.3019 69.0749C22.1475 72.2929 20.6794 75.9081 19.9868 79.7014C19.2677 83.6752 19.3626 87.7504 20.2662 91.6875C21.1697 95.6246 22.8636 99.3441 25.2483 102.627C35.2892 116.771 55.1196 120.962 69.4566 111.97L94.637 96.2402C98.0314 94.1343 100.944 91.3572 103.191 88.0847C105.438 84.8123 106.97 81.1159 107.69 77.23C108.889 70.6701 107.833 63.9037 104.687 58.0014C106.841 54.7819 108.312 51.1675 109.013 47.3748C109.73 43.401 109.634 39.3263 108.73 35.3895C107.827 31.4527 106.134 27.7331 103.751 24.4488V24.3726C97.1619 15.091 86.3565 10.0953 75.6542 10.2989ZM77.8631 22.4401C80.936 22.579 83.935 23.414 86.6266 24.8802C89.3182 26.3464 91.6299 28.4043 93.3818 30.8936C94.8167 32.8669 95.8361 35.1028 96.38 37.4698C96.9239 39.8368 96.9813 42.287 96.5488 44.6761C96.398 45.4574 96.198 46.2286 95.9498 46.9854L95.4669 48.412L94.1829 47.4608C91.203 45.3073 87.873 43.6682 84.3351 42.6136L83.3701 42.338L83.4566 41.3872C83.5681 40.0777 83.2058 38.7715 82.4336 37.6996C81.7249 36.7201 80.7301 35.9763 79.5816 35.567C78.433 35.1577 77.1851 35.1024 76.0038 35.4085C75.4571 35.5511 74.9359 35.7755 74.4584 36.074L49.2698 51.8431C48.6546 52.2259 48.1266 52.7301 47.7194 53.324C47.3122 53.9178 47.0345 54.5884 46.904 55.2933C46.7778 56.0156 46.7982 56.7554 46.964 57.4699C47.1297 58.1844 47.4376 58.8596 47.8698 59.4564C48.5708 60.4439 49.5603 61.1982 50.7068 61.6192C51.8534 62.0403 53.103 62.1082 54.2897 61.8139C54.835 61.6674 55.3557 61.443 55.8351 61.148L65.4899 55.1223C67.0675 54.1258 68.7937 53.3784 70.606 52.9074C74.5677 51.8915 78.7507 52.098 82.5894 53.4988C86.428 54.8997 89.7371 57.4273 92.069 60.7399C93.5028 62.7137 94.5215 64.9497 95.0652 67.3165C95.6089 69.6833 95.6667 72.1333 95.2351 74.5224C94.8088 76.8655 93.8905 79.0953 92.5389 81.0691C91.1873 83.043 89.4323 84.7174 87.3859 85.9854L62.1965 101.783C60.6147 102.771 58.8897 103.518 57.0804 103.997C53.1164 105.009 48.9323 104.801 45.0927 103.399C41.253 101.996 37.9427 99.4686 35.6083 96.156C34.1752 94.182 33.1576 91.9457 32.6155 89.5787C32.0734 87.2118 32.0177 84.762 32.4517 82.3735C32.5938 81.5967 32.7936 80.8313 33.0494 80.0833L33.5232 78.6566L34.8167 79.6075C37.7906 81.7448 41.1107 83.371 44.6362 84.4169L45.6011 84.6921L45.5146 85.6433C45.4217 86.9465 45.7939 88.2408 46.5669 89.3026C47.2712 90.2992 48.2687 91.0595 49.4252 91.481C50.5817 91.9025 51.8416 91.965 53.0353 91.6602C53.5811 91.5155 54.1018 91.2911 54.5799 90.9943L79.7207 75.1972C80.3383 74.8147 80.8678 74.3093 81.2752 73.7135C81.6827 73.1176 81.959 72.4445 82.0866 71.7373C82.2152 71.0165 82.196 70.2778 82.0301 69.5645C81.8643 68.8512 81.5551 68.1778 81.1208 67.5839C80.4164 66.5874 79.4189 65.8272 78.2624 65.4058C77.1059 64.9844 75.846 64.9219 74.6523 65.2268C74.1059 65.3692 73.585 65.5934 73.1078 65.8915L63.453 71.9273C61.874 72.913 60.1519 73.6566 58.3459 74.1325C54.3884 75.1392 50.2126 74.9283 46.3806 73.5281C42.5485 72.1279 39.2441 69.6057 36.9121 66.3008C35.4832 64.325 34.4696 62.088 33.9308 59.7212C33.3919 57.3545 33.3388 54.9056 33.7744 52.5183C34.2006 50.1752 35.1188 47.9453 36.4703 45.9714C37.8218 43.9975 39.5768 42.323 41.6231 41.0549L66.8409 25.2578C68.4108 24.2739 70.1232 23.5302 71.9197 23.0522C73.8585 22.5565 75.862 22.3504 77.8631 22.4409V22.4401Z" fill="#FF5722"/>
</svg>
