<svg width="129" height="127" viewBox="0 0 129 127" fill="none" xmlns="http://www.w3.org/2000/svg">
<path d="M94.7344 47.625H32.25C35.8378 38.4969 48.4556 31.75 63.4922 31.75C78.5287 31.75 91.1466 38.4969 94.7344 47.625ZM56.4375 47.625H118.922C115.334 56.7531 102.716 63.5 87.6797 63.5C72.6431 63.5 60.0253 56.7531 56.4375 47.625ZM70.5469 79.375H8.0625C11.6503 70.2469 24.2681 63.5 39.3047 63.5C54.3413 63.5 66.9591 70.2469 70.5469 79.375ZM32.25 79.375H94.7344C91.1466 88.5031 78.5287 95.25 63.4922 95.25C48.4556 95.25 35.8378 88.5031 32.25 79.375Z" fill="#4DB6AC"/>
</svg>
