<svg width="129" height="127" viewBox="0 0 129 127" fill="none" xmlns="http://www.w3.org/2000/svg">
<path d="M16.125 15.875V111.125H112.875V15.875H16.125ZM21.5027 21.1693H107.497V105.831H21.5027V21.1693Z" fill="#0288D1"/>
<path d="M85.9382 54.5623C77.8193 54.5623 72.6109 59.6423 72.6109 66.3653C72.6109 73.6678 76.9646 77.1048 83.5194 79.8591L85.7769 80.8116C89.9694 82.6134 92.4446 83.7167 92.4446 86.7885C92.4446 89.3285 90.0259 91.1779 86.2607 91.1779C81.8021 91.1779 79.2221 88.9078 77.2871 85.7328L69.8696 89.9635C72.5625 95.1467 77.9886 99.1154 86.4784 99.1154C95.0811 99.1154 101.523 94.726 101.523 86.6297C101.523 79.1685 97.1693 75.8348 89.4292 72.5566L87.1718 71.6041C83.2534 69.961 81.5925 68.8418 81.5925 66.2066C81.5925 64.0317 83.2453 62.341 85.9382 62.341C88.5182 62.341 90.2355 63.4523 91.7916 66.1986L98.8382 61.5949C95.8792 56.5149 91.6868 54.5623 85.9382 54.5623ZM39.1757 54.9829V62.9204H47.2382V101.29H56.6471V62.9204H66.0561V54.9829H39.1757Z" fill="#0288D1"/>
</svg>
